Patient4_TMGait_0pt8_01_left_28_GRF.mot
version=1
nRows=32
nColumns=19
inDegrees=no
endheader
time	F1x	F1y	F1z	M1x	M1y	M1z	F2x	F2y	F2z	M2x	M2y	M2z	EC1x	EC1y	EC1z	EC2x	EC2y	EC2z
30.76	15.9628	-7.101	-7.0274	1.5358	9.9056	-8.5064	-17.0711	698.0426	-74.3201	236.3073	98.0256	825.2838	-0.0592	0.0182	-0.0073	-0.0462	0.0165	0.9585
30.7707	10.6078	-3.9059	-4.6859	0.74191	6.5623	-4.577	-20.71	701.8161	-74.3829	237.9247	97.9338	822.2027	-0.0592	0.0182	-0.0073	-0.0462	0.0165	0.9585
30.7814	6.1426	-1.1489	-2.7397	0.049409	3.7882	-1.2291	-23.1358	708.0204	-74.1416	240.3723	97.1524	821.4776	-0.0592	0.0182	-0.0073	-0.0462	0.0165	0.9585
30.7921	2.7597	1.0398	-1.2548	-0.50762	1.6816	1.405	-24.0939	716.6246	-73.6897	243.6253	95.7563	823.3304	-0.0592	0.0182	-0.0073	-0.0462	0.0165	0.9585
30.8029	0.46958	2.6145	-0.23953	-0.92023	0.25108	3.2685	-23.636	727.2703	-73.1412	247.5494	93.8989	827.4712	-0.0592	0.0182	-0.0073	-0.0462	0.0165	0.9585
30.8136	-0.93435	3.6579	0.39749	-1.207	-0.63807	4.4825	-21.9135	739.1725	-72.6129	251.8707	91.7489	833.0636	-0.0592	0.0182	-0.0073	-0.0462	0.0165	0.9585
30.8243	-1.6627	4.2267	0.74825	-1.3796	-1.119	5.1097	-19.1635	751.284	-72.1604	256.2324	89.4237	838.9508	-0.0592	0.0182	-0.0073	-0.0462	0.0165	0.9585
30.835	-1.9608	4.4125	0.89692	-1.4512	-1.3289	5.2905	-15.5525	762.4583	-71.7895	260.2497	86.9637	843.8307	-0.0592	0.0182	-0.0073	-0.0462	0.0165	0.9585
30.8457	-2.0237	4.2501	0.94077	-1.4181	-1.4038	5.0471	-11.2556	771.5453	-71.4455	263.5459	84.349	846.4357	-0.0592	0.0182	-0.0073	-0.0462	0.0165	0.9585
30.8564	-2.0004	3.7556	0.90756	-1.2714	-1.4022	4.3963	-6.3796	777.5834	-71.0228	265.8116	81.4948	845.695	-0.0592	0.0182	-0.0073	-0.0462	0.0165	0.9585
30.8671	-1.9878	2.8898	0.85681	-0.98759	-1.3963	3.2752	-1.0495	779.8346	-70.4288	266.8189	78.3362	840.8401	-0.0592	0.0182	-0.0073	-0.0462	0.0165	0.9585
30.8779	-2.0239	1.5848	0.78846	-0.5393	-1.3892	1.5998	4.682	777.9592	-69.5656	266.4741	74.7983	831.5298	-0.0592	0.0182	-0.0073	-0.0462	0.0165	0.9585
30.8886	-2.1041	-0.21812	0.71295	0.098093	-1.379	-0.68296	10.7115	772.0242	-68.4057	264.8188	70.8909	817.8836	-0.0592	0.0182	-0.0073	-0.0462	0.0165	0.9585
30.8993	-2.1649	-2.5524	0.62262	0.93396	-1.3315	-3.6098	16.9423	762.5105	-66.9586	262.0307	66.6594	800.4828	-0.0592	0.0182	-0.0073	-0.0462	0.0165	0.9585
30.91	-2.0907	-5.3196	0.488	1.9348	-1.1722	-7.038	23.2263	750.2312	-65.2796	258.3909	62.2155	780.2745	-0.0592	0.0182	-0.0073	-0.0462	0.0165	0.9585
30.9207	-1.7052	-8.2402	0.2979	2.9954	-0.82094	-10.6404	29.3479	736.1501	-63.5067	254.2211	57.7672	758.3796	-0.0592	0.0182	-0.0073	-0.0462	0.0165	0.9585
30.9314	-0.81194	-10.7118	0.01606	3.892	-0.16486	-13.6767	35.1175	721.3138	-61.7844	249.8591	53.5247	735.9999	-0.0592	0.0182	-0.0073	-0.0462	0.0165	0.9585
30.9421	0.84838	-11.7267	-0.36294	4.2517	0.90182	-14.9244	40.2653	706.6935	-60.3216	245.6103	49.7763	714.2565	-0.0592	0.0182	-0.0073	-0.0462	0.0165	0.9585
30.9529	3.4904	-9.7642	-0.84217	3.5118	2.4664	-12.4948	44.6393	693.1302	-59.2688	241.7309	46.7245	694.1149	-0.0592	0.0182	-0.0073	-0.0462	0.0165	0.9585
30.9636	7.3133	-2.7933	-1.3769	0.92043	4.5495	-3.8707	48.0651	681.1539	-58.7211	238.3714	44.5116	676.2039	-0.0592	0.0182	-0.0073	-0.0462	0.0165	0.9585
30.9743	12.3006	11.6647	-1.8926	-4.4331	7.0498	14.0589	50.5092	670.9264	-58.6724	235.5603	43.141	660.7243	-0.0592	0.0182	-0.0073	-0.0462	0.0165	0.9585
30.985	18.1832	36.2551	-2.239	-13.5161	9.6793	44.5927	51.958	662.1772	-58.9848	233.1833	42.4721	647.4528	-0.0592	0.0182	-0.0073	-0.0462	0.0165	0.9585
30.9957	24.1673	73.2786	-2.2097	-27.1574	11.8827	90.6148	52.486	654.2043	-59.4506	230.9805	42.2774	635.7023	-0.0592	0.0182	-0.0073	-0.0462	0.0165	0.9585
31.0064	28.7905	123.74	-1.4908	-45.6975	12.7228	153.3927	52.1943	645.9186	-59.7645	228.5681	42.2299	624.4016	-0.0592	0.0182	-0.0073	-0.0462	0.0165	0.9585
31.0171	29.7204	186.0765	0.32448	-68.5243	10.8261	231.0356	51.2872	635.9375	-59.6132	225.4722	41.976	612.1579	-0.0592	0.0182	-0.0073	-0.0462	0.0165	0.9585
31.0279	24.5436	255.2565	3.8022	-93.7425	4.6223	317.3479	49.972	622.8605	-58.6671	221.2207	41.1424	597.5417	-0.0592	0.0182	-0.0073	-0.0462	0.0165	0.9585
31.0386	13.0064	323.4373	9.6712	-118.4306	-6.812	402.5618	48.4951	605.4604	-56.6851	215.4097	39.4344	579.2749	-0.0592	0.0182	-0.0073	-0.0462	0.0165	0.9585
31.0493	-1.7333	383.6655	18.3064	-140.0623	-22.6555	477.7247	47.0651	582.8697	-53.6171	207.7543	36.7455	556.4021	-0.0592	0.0182	-0.0073	-0.0462	0.0165	0.9585
31.06	-16.9701	434.0747	28.319	-158.0038	-40.2772	540.0464	45.8312	554.6479	-49.6347	198.0919	33.192	528.3878	-0.0592	0.0182	-0.0073	-0.0462	0.0165	0.9585
31.0707	-30.8519	476.4233	38.4092	-172.961	-57.4035	591.4263	44.7611	520.6353	-45.153	186.3362	29.1534	495.028	-0.0592	0.0182	-0.0073	-0.0462	0.0165	0.9585
31.0814	-41.9336	513.3621	47.6528	-185.9852	-72.3723	635.0254	43.7396	480.9602	-40.598	172.4969	25.0464	456.4185	-0.0592	0.0182	-0.0073	-0.0462	0.0165	0.9585
31.0921	-49.5547	546.9739	55.2388	-197.8957	-84.0131	673.511	42.4642	436.1302	-36.2089	156.7265	21.169	413.0848	-0.0592	0.0182	-0.0073	-0.0462	0.0165	0.9585
